<svg width="224" height="60" viewBox="0 0 224 60" fill="none" xmlns="http://www.w3.org/2000/svg">
<g filter="url(#filter0_d_75_1102)">
<path d="M31.125 26H44.875" stroke="#8B5CF6" stroke-width="1.88" stroke-linecap="round" stroke-linejoin="round"/>
<path d="M38 19.125V32.875" stroke="#8B5CF6" stroke-width="1.88" stroke-linecap="round" stroke-linejoin="round"/>
<path d="M61.1477 32V20.3636H65.5114C66.4053 20.3636 67.1553 20.5189 67.7614 20.8295C68.3712 21.1402 68.8314 21.5758 69.142 22.1364C69.4564 22.6932 69.6136 23.3428 69.6136 24.0852C69.6136 24.8314 69.4545 25.4792 69.1364 26.0284C68.822 26.5739 68.358 26.9962 67.7443 27.2955C67.1307 27.5909 66.3769 27.7386 65.483 27.7386H62.375V25.9886H65.1989C65.7216 25.9886 66.1496 25.9167 66.483 25.7727C66.8163 25.625 67.0625 25.411 67.2216 25.1307C67.3845 24.8466 67.4659 24.4981 67.4659 24.0852C67.4659 23.6723 67.3845 23.3201 67.2216 23.0284C67.0587 22.733 66.8106 22.5095 66.4773 22.358C66.1439 22.2027 65.714 22.125 65.1875 22.125H63.2557V32H61.1477ZM67.1591 26.7273L70.0398 32H67.6875L64.858 26.7273H67.1591ZM75.2017 32.1705C74.3267 32.1705 73.571 31.9886 72.9347 31.625C72.3021 31.2576 71.8153 30.7386 71.4744 30.0682C71.1335 29.3939 70.9631 28.6004 70.9631 27.6875C70.9631 26.7898 71.1335 26.0019 71.4744 25.3239C71.8191 24.642 72.3002 24.1117 72.9176 23.733C73.535 23.3504 74.2604 23.1591 75.0938 23.1591C75.6316 23.1591 76.1392 23.2462 76.6165 23.4205C77.0975 23.5909 77.5218 23.8561 77.8892 24.2159C78.2604 24.5758 78.5521 25.0341 78.7642 25.5909C78.9763 26.1439 79.0824 26.803 79.0824 27.5682V28.1989H71.929V26.8125H77.1108C77.107 26.4186 77.0218 26.0682 76.8551 25.7614C76.6884 25.4508 76.4555 25.2064 76.1562 25.0284C75.8608 24.8504 75.5161 24.7614 75.1222 24.7614C74.7017 24.7614 74.3324 24.8636 74.0142 25.0682C73.696 25.2689 73.4479 25.5341 73.2699 25.8636C73.0956 26.1894 73.0066 26.5473 73.0028 26.9375V28.1477C73.0028 28.6553 73.0956 29.0909 73.2812 29.4545C73.4669 29.8144 73.7263 30.0909 74.0597 30.2841C74.393 30.4735 74.7831 30.5682 75.2301 30.5682C75.5294 30.5682 75.8002 30.5265 76.0426 30.4432C76.285 30.3561 76.4953 30.2292 76.6733 30.0625C76.8513 29.8958 76.9858 29.6894 77.0767 29.4432L78.9972 29.6591C78.8759 30.1667 78.6449 30.6098 78.304 30.9886C77.9669 31.3636 77.535 31.6553 77.0085 31.8636C76.482 32.0682 75.8797 32.1705 75.2017 32.1705ZM84.6179 35.4545C83.8793 35.4545 83.2448 35.3542 82.7145 35.1534C82.1842 34.9564 81.758 34.6913 81.4361 34.358C81.1141 34.0246 80.8906 33.6553 80.7656 33.25L82.6179 32.8011C82.7012 32.9716 82.8224 33.1402 82.9815 33.3068C83.1406 33.4773 83.3546 33.6174 83.6236 33.7273C83.8963 33.8409 84.2391 33.8977 84.652 33.8977C85.2353 33.8977 85.7183 33.7557 86.1009 33.4716C86.4834 33.1913 86.6747 32.7292 86.6747 32.0852V30.4318H86.5724C86.4664 30.6439 86.3111 30.8617 86.1065 31.0852C85.9058 31.3087 85.6387 31.4962 85.3054 31.6477C84.9759 31.7992 84.5611 31.875 84.0611 31.875C83.3906 31.875 82.7827 31.7178 82.2372 31.4034C81.6955 31.0852 81.2637 30.6117 80.9418 29.983C80.6236 29.3504 80.4645 28.5587 80.4645 27.608C80.4645 26.6496 80.6236 25.8409 80.9418 25.1818C81.2637 24.5189 81.6974 24.017 82.2429 23.6761C82.7884 23.3314 83.3963 23.1591 84.0668 23.1591C84.5781 23.1591 84.9986 23.2462 85.3281 23.4205C85.6615 23.5909 85.9266 23.7973 86.1236 24.0398C86.3205 24.2784 86.4702 24.5038 86.5724 24.7159H86.6861V23.2727H88.7145V32.142C88.7145 32.8883 88.5365 33.5057 88.1804 33.9943C87.8243 34.483 87.3376 34.8485 86.7202 35.0909C86.1027 35.3333 85.402 35.4545 84.6179 35.4545ZM84.6349 30.2614C85.0705 30.2614 85.4418 30.1553 85.7486 29.9432C86.0554 29.7311 86.2884 29.4261 86.4474 29.0284C86.6065 28.6307 86.6861 28.1534 86.6861 27.5966C86.6861 27.0473 86.6065 26.5663 86.4474 26.1534C86.2921 25.7405 86.0611 25.4205 85.7543 25.1932C85.4512 24.9621 85.0781 24.8466 84.6349 24.8466C84.1766 24.8466 83.794 24.9659 83.4872 25.2045C83.1804 25.4432 82.9493 25.7708 82.794 26.1875C82.6387 26.6004 82.5611 27.0701 82.5611 27.5966C82.5611 28.1307 82.6387 28.5985 82.794 29C82.9531 29.3977 83.1861 29.7083 83.4929 29.9318C83.8035 30.1515 84.1842 30.2614 84.6349 30.2614ZM90.8224 32V23.2727H92.8793V32H90.8224ZM91.8565 22.0341C91.5308 22.0341 91.2505 21.9261 91.0156 21.7102C90.7808 21.4905 90.6634 21.2273 90.6634 20.9205C90.6634 20.6098 90.7808 20.3466 91.0156 20.1307C91.2505 19.911 91.5308 19.8011 91.8565 19.8011C92.1861 19.8011 92.4664 19.911 92.6974 20.1307C92.9323 20.3466 93.0497 20.6098 93.0497 20.9205C93.0497 21.2273 92.9323 21.4905 92.6974 21.7102C92.4664 21.9261 92.1861 22.0341 91.8565 22.0341ZM101.892 25.5795L100.017 25.7841C99.964 25.5947 99.8712 25.4167 99.7386 25.25C99.6098 25.0833 99.4356 24.9489 99.2159 24.8466C98.9962 24.7443 98.7273 24.6932 98.4091 24.6932C97.9811 24.6932 97.6212 24.786 97.3295 24.9716C97.0417 25.1572 96.8996 25.3977 96.9034 25.6932C96.8996 25.947 96.9924 26.1534 97.1818 26.3125C97.375 26.4716 97.6932 26.6023 98.1364 26.7045L99.625 27.0227C100.451 27.2008 101.064 27.483 101.466 27.8693C101.871 28.2557 102.076 28.7614 102.08 29.3864C102.076 29.9356 101.915 30.4205 101.597 30.8409C101.282 31.2576 100.845 31.5833 100.284 31.8182C99.7235 32.053 99.0795 32.1705 98.3523 32.1705C97.2841 32.1705 96.4242 31.947 95.7727 31.5C95.1212 31.0492 94.733 30.4223 94.608 29.6193L96.6136 29.4261C96.7045 29.8201 96.8977 30.1174 97.1932 30.3182C97.4886 30.5189 97.8731 30.6193 98.3466 30.6193C98.8352 30.6193 99.2273 30.5189 99.5227 30.3182C99.822 30.1174 99.9716 29.8693 99.9716 29.5739C99.9716 29.3239 99.875 29.1174 99.6818 28.9545C99.4924 28.7917 99.197 28.6667 98.7955 28.5795L97.3068 28.267C96.4697 28.0928 95.8504 27.7992 95.4489 27.3864C95.0473 26.9697 94.8485 26.4432 94.8523 25.8068C94.8485 25.2689 94.9943 24.803 95.2898 24.4091C95.589 24.0114 96.0038 23.7045 96.5341 23.4886C97.0682 23.2689 97.6837 23.1591 98.3807 23.1591C99.4034 23.1591 100.208 23.3769 100.795 23.8125C101.386 24.2481 101.752 24.8371 101.892 25.5795ZM108.134 23.2727V24.8636H103.116V23.2727H108.134ZM104.355 21.1818H106.412V29.375C106.412 29.6515 106.454 29.8636 106.537 30.0114C106.624 30.1553 106.738 30.2538 106.878 30.3068C107.018 30.3598 107.173 30.3864 107.344 30.3864C107.473 30.3864 107.59 30.3769 107.696 30.358C107.806 30.339 107.889 30.322 107.946 30.3068L108.293 31.9148C108.183 31.9527 108.026 31.9943 107.821 32.0398C107.62 32.0852 107.374 32.1117 107.082 32.1193C106.567 32.1345 106.103 32.0568 105.69 31.8864C105.277 31.7121 104.95 31.4432 104.707 31.0795C104.469 30.7159 104.351 30.2614 104.355 29.7159V21.1818ZM109.854 32V23.2727H111.848V24.7273H111.939C112.098 24.2235 112.371 23.8352 112.757 23.5625C113.147 23.286 113.592 23.1477 114.092 23.1477C114.206 23.1477 114.333 23.1534 114.473 23.1648C114.617 23.1723 114.736 23.1856 114.831 23.2045V25.0966C114.744 25.0663 114.606 25.0398 114.416 25.017C114.231 24.9905 114.051 24.9773 113.876 24.9773C113.501 24.9773 113.164 25.0587 112.865 25.2216C112.57 25.3807 112.337 25.6023 112.166 25.8864C111.996 26.1705 111.911 26.4981 111.911 26.8693V32H109.854ZM118.553 32.1761C118 32.1761 117.501 32.0777 117.058 31.8807C116.619 31.6799 116.27 31.3845 116.013 30.9943C115.759 30.6042 115.632 30.1231 115.632 29.5511C115.632 29.0587 115.723 28.6515 115.905 28.3295C116.087 28.0076 116.335 27.75 116.649 27.5568C116.964 27.3636 117.318 27.2178 117.712 27.1193C118.109 27.017 118.52 26.9432 118.945 26.8977C119.456 26.8447 119.871 26.7973 120.189 26.7557C120.507 26.7102 120.738 26.642 120.882 26.5511C121.03 26.4564 121.104 26.3106 121.104 26.1136V26.0795C121.104 25.6515 120.977 25.3201 120.723 25.0852C120.469 24.8504 120.104 24.733 119.626 24.733C119.123 24.733 118.723 24.8428 118.428 25.0625C118.136 25.2822 117.939 25.5417 117.837 25.8409L115.916 25.5682C116.068 25.0379 116.318 24.5947 116.666 24.2386C117.015 23.8788 117.441 23.6098 117.945 23.4318C118.448 23.25 119.005 23.1591 119.615 23.1591C120.036 23.1591 120.454 23.2083 120.871 23.3068C121.287 23.4053 121.668 23.5682 122.013 23.7955C122.357 24.0189 122.634 24.3239 122.842 24.7102C123.054 25.0966 123.161 25.5795 123.161 26.1591V32H121.183V30.8011H121.115C120.99 31.0436 120.814 31.2708 120.587 31.483C120.363 31.6913 120.081 31.8598 119.74 31.9886C119.403 32.1136 119.007 32.1761 118.553 32.1761ZM119.087 30.6648C119.5 30.6648 119.857 30.5833 120.161 30.4205C120.464 30.2538 120.696 30.0341 120.859 29.7614C121.026 29.4886 121.109 29.1913 121.109 28.8693V27.8409C121.045 27.8939 120.935 27.9432 120.78 27.9886C120.628 28.0341 120.458 28.0739 120.268 28.108C120.079 28.142 119.892 28.1723 119.706 28.1989C119.52 28.2254 119.359 28.2481 119.223 28.267C118.916 28.3087 118.642 28.3769 118.399 28.4716C118.157 28.5663 117.965 28.6989 117.825 28.8693C117.685 29.036 117.615 29.2519 117.615 29.517C117.615 29.8958 117.753 30.1818 118.03 30.375C118.306 30.5682 118.659 30.6648 119.087 30.6648ZM125.229 32V23.2727H127.223V24.7273H127.314C127.473 24.2235 127.746 23.8352 128.132 23.5625C128.522 23.286 128.967 23.1477 129.467 23.1477C129.581 23.1477 129.708 23.1534 129.848 23.1648C129.992 23.1723 130.111 23.1856 130.206 23.2045V25.0966C130.119 25.0663 129.981 25.0398 129.791 25.017C129.606 24.9905 129.426 24.9773 129.251 24.9773C128.876 24.9773 128.539 25.0587 128.24 25.2216C127.945 25.3807 127.712 25.6023 127.541 25.8864C127.371 26.1705 127.286 26.4981 127.286 26.8693V32H125.229ZM135.541 32V23.2727H137.507V24.7557H137.609C137.791 24.2557 138.092 23.8655 138.513 23.5852C138.933 23.3011 139.435 23.1591 140.018 23.1591C140.609 23.1591 141.107 23.303 141.513 23.5909C141.922 23.875 142.21 24.2633 142.376 24.7557H142.467C142.661 24.2708 142.986 23.8845 143.445 23.5966C143.907 23.3049 144.454 23.1591 145.087 23.1591C145.89 23.1591 146.545 23.4129 147.053 23.9205C147.56 24.428 147.814 25.1686 147.814 26.142V32H145.751V26.4602C145.751 25.9186 145.607 25.5227 145.32 25.2727C145.032 25.0189 144.679 24.892 144.263 24.892C143.767 24.892 143.378 25.0473 143.098 25.358C142.821 25.6648 142.683 26.0644 142.683 26.5568V32H140.666V26.375C140.666 25.9242 140.53 25.5644 140.257 25.2955C139.988 25.0265 139.636 24.892 139.2 24.892C138.905 24.892 138.636 24.9678 138.393 25.1193C138.151 25.267 137.958 25.4773 137.814 25.75C137.67 26.0189 137.598 26.3333 137.598 26.6932V32H135.541ZM153.764 32.1705C152.889 32.1705 152.134 31.9886 151.497 31.625C150.865 31.2576 150.378 30.7386 150.037 30.0682C149.696 29.3939 149.526 28.6004 149.526 27.6875C149.526 26.7898 149.696 26.0019 150.037 25.3239C150.382 24.642 150.863 24.1117 151.48 23.733C152.098 23.3504 152.823 23.1591 153.656 23.1591C154.194 23.1591 154.702 23.2462 155.179 23.4205C155.66 23.5909 156.084 23.8561 156.452 24.2159C156.823 24.5758 157.115 25.0341 157.327 25.5909C157.539 26.1439 157.645 26.803 157.645 27.5682V28.1989H150.491V26.8125H155.673C155.67 26.4186 155.584 26.0682 155.418 25.7614C155.251 25.4508 155.018 25.2064 154.719 25.0284C154.423 24.8504 154.079 24.7614 153.685 24.7614C153.264 24.7614 152.895 24.8636 152.577 25.0682C152.259 25.2689 152.01 25.5341 151.832 25.8636C151.658 26.1894 151.569 26.5473 151.565 26.9375V28.1477C151.565 28.6553 151.658 29.0909 151.844 29.4545C152.029 29.8144 152.289 30.0909 152.622 30.2841C152.955 30.4735 153.346 30.5682 153.793 30.5682C154.092 30.5682 154.363 30.5265 154.605 30.4432C154.848 30.3561 155.058 30.2292 155.236 30.0625C155.414 29.8958 155.548 29.6894 155.639 29.4432L157.56 29.6591C157.438 30.1667 157.207 30.6098 156.866 30.9886C156.529 31.3636 156.098 31.6553 155.571 31.8636C155.045 32.0682 154.442 32.1705 153.764 32.1705ZM164.947 28.3295V23.2727H167.004V32H165.01V30.4489H164.919C164.722 30.9375 164.398 31.3371 163.947 31.6477C163.5 31.9583 162.949 32.1136 162.294 32.1136C161.722 32.1136 161.216 31.9867 160.777 31.733C160.341 31.4754 160 31.1023 159.754 30.6136C159.508 30.1212 159.385 29.5265 159.385 28.8295V23.2727H161.442V28.5114C161.442 29.0644 161.593 29.5038 161.896 29.8295C162.199 30.1553 162.597 30.3182 163.089 30.3182C163.393 30.3182 163.686 30.2443 163.97 30.0966C164.254 29.9489 164.487 29.7292 164.669 29.4375C164.855 29.142 164.947 28.7727 164.947 28.3295ZM176.327 32.1534C175.641 32.1534 175.027 31.9773 174.486 31.625C173.944 31.2727 173.516 30.7614 173.202 30.0909C172.887 29.4205 172.73 28.6061 172.73 27.6477C172.73 26.678 172.889 25.8598 173.207 25.1932C173.529 24.5227 173.963 24.017 174.509 23.6761C175.054 23.3314 175.662 23.1591 176.332 23.1591C176.844 23.1591 177.264 23.2462 177.594 23.4205C177.923 23.5909 178.185 23.7973 178.378 24.0398C178.571 24.2784 178.721 24.5038 178.827 24.7159H178.912V20.3636H180.974V32H178.952V30.625H178.827C178.721 30.8371 178.567 31.0625 178.366 31.3011C178.166 31.536 177.901 31.7367 177.571 31.9034C177.241 32.0701 176.827 32.1534 176.327 32.1534ZM176.901 30.4659C177.336 30.4659 177.707 30.3485 178.014 30.1136C178.321 29.875 178.554 29.5436 178.713 29.1193C178.872 28.6951 178.952 28.2008 178.952 27.6364C178.952 27.072 178.872 26.5814 178.713 26.1648C178.558 25.7481 178.327 25.4242 178.02 25.1932C177.717 24.9621 177.344 24.8466 176.901 24.8466C176.442 24.8466 176.06 24.9659 175.753 25.2045C175.446 25.4432 175.215 25.7727 175.06 26.1932C174.904 26.6136 174.827 27.0947 174.827 27.6364C174.827 28.1818 174.904 28.6686 175.06 29.0966C175.219 29.5208 175.452 29.8561 175.759 30.1023C176.069 30.3447 176.45 30.4659 176.901 30.4659ZM183.166 32V23.2727H185.223V32H183.166ZM184.2 22.0341C183.875 22.0341 183.594 21.9261 183.359 21.7102C183.125 21.4905 183.007 21.2273 183.007 20.9205C183.007 20.6098 183.125 20.3466 183.359 20.1307C183.594 19.911 183.875 19.8011 184.2 19.8011C184.53 19.8011 184.81 19.911 185.041 20.1307C185.276 20.3466 185.393 20.6098 185.393 20.9205C185.393 21.2273 185.276 21.4905 185.041 21.7102C184.81 21.9261 184.53 22.0341 184.2 22.0341ZM189.849 32.1761C189.296 32.1761 188.798 32.0777 188.355 31.8807C187.916 31.6799 187.567 31.3845 187.31 30.9943C187.056 30.6042 186.929 30.1231 186.929 29.5511C186.929 29.0587 187.02 28.6515 187.202 28.3295C187.384 28.0076 187.632 27.75 187.946 27.5568C188.26 27.3636 188.615 27.2178 189.009 27.1193C189.406 27.017 189.817 26.9432 190.241 26.8977C190.753 26.8447 191.168 26.7973 191.486 26.7557C191.804 26.7102 192.035 26.642 192.179 26.5511C192.327 26.4564 192.401 26.3106 192.401 26.1136V26.0795C192.401 25.6515 192.274 25.3201 192.02 25.0852C191.766 24.8504 191.401 24.733 190.923 24.733C190.42 24.733 190.02 24.8428 189.724 25.0625C189.433 25.2822 189.236 25.5417 189.134 25.8409L187.213 25.5682C187.365 25.0379 187.615 24.5947 187.963 24.2386C188.312 23.8788 188.738 23.6098 189.241 23.4318C189.745 23.25 190.302 23.1591 190.912 23.1591C191.332 23.1591 191.751 23.2083 192.168 23.3068C192.584 23.4053 192.965 23.5682 193.31 23.7955C193.654 24.0189 193.931 24.3239 194.139 24.7102C194.351 25.0966 194.457 25.5795 194.457 26.1591V32H192.48V30.8011H192.412C192.287 31.0436 192.111 31.2708 191.884 31.483C191.66 31.6913 191.378 31.8598 191.037 31.9886C190.7 32.1136 190.304 32.1761 189.849 32.1761ZM190.384 30.6648C190.796 30.6648 191.154 30.5833 191.457 30.4205C191.76 30.2538 191.993 30.0341 192.156 29.7614C192.323 29.4886 192.406 29.1913 192.406 28.8693V27.8409C192.342 27.8939 192.232 27.9432 192.077 27.9886C191.925 28.0341 191.755 28.0739 191.565 28.108C191.376 28.142 191.188 28.1723 191.003 28.1989C190.817 28.2254 190.656 28.2481 190.52 28.267C190.213 28.3087 189.938 28.3769 189.696 28.4716C189.454 28.5663 189.262 28.6989 189.122 28.8693C188.982 29.036 188.912 29.2519 188.912 29.517C188.912 29.8958 189.05 30.1818 189.327 30.375C189.603 30.5682 189.955 30.6648 190.384 30.6648Z" fill="white"/>
<rect x="4.5" y="0.5" width="215" height="51" rx="7.5" stroke="#8B5CF6" shape-rendering="crispEdges"/>
</g>
<defs>
<filter id="filter0_d_75_1102" x="0" y="0" width="224" height="60" filterUnits="userSpaceOnUse" color-interpolation-filters="sRGB">
<feFlood flood-opacity="0" result="BackgroundImageFix"/>
<feColorMatrix in="SourceAlpha" type="matrix" values="0 0 0 0 0 0 0 0 0 0 0 0 0 0 0 0 0 0 127 0" result="hardAlpha"/>
<feOffset dy="4"/>
<feGaussianBlur stdDeviation="2"/>
<feComposite in2="hardAlpha" operator="out"/>
<feColorMatrix type="matrix" values="0 0 0 0 0 0 0 0 0 0 0 0 0 0 0 0 0 0 0.25 0"/>
<feBlend mode="normal" in2="BackgroundImageFix" result="effect1_dropShadow_75_1102"/>
<feBlend mode="normal" in="SourceGraphic" in2="effect1_dropShadow_75_1102" result="shape"/>
</filter>
</defs>
</svg>
